<svg xmlns="http://www.w3.org/2000/svg" viewBox="0 0 48 48" width="48" height="48">
  <defs>
    <linearGradient id="healCardBg" x1="0%" y1="0%" x2="0%" y2="100%">
      <stop offset="0%" stop-color="#55efc4"/>
      <stop offset="60%" stop-color="#00b894"/>
      <stop offset="100%" stop-color="#006266"/>
    </linearGradient>
  </defs>
  <rect x="2" y="2" width="44" height="44" rx="10" fill="url(#healCardBg)" stroke="#feca57" stroke-width="2.5"/>
  <path d="M 6 6 L 42 6 C 36 14, 12 14, 6 6 Z" fill="#ffffff" opacity="0.35"/>
  <!-- Cross Icon -->
  <path d="M 21 12 C 21 10, 27 10, 27 12 L 27 21 L 36 21 C 38 21, 38 27, 36 27 L 27 27 L 27 36 C 27 38, 21 38, 21 36 L 21 27 L 12 27 C 10 27, 10 21, 12 21 L 21 21 Z"
        fill="#ffffff" stroke="#10ac84" stroke-width="1.5" stroke-linejoin="round"/>
</svg>
